# xmcd
#
# Track frame offsets: 
#        150
#        14438
#        27776
#        41754
#        59158
#        72242
#        83214
#        97112
#        118597
#        141718
#        159895
#        178502
#        193767
#        212435
#
# Disc length: 3031 seconds
#
# Revision: 0
# Processed by: cddbd v1.5.2PL0 Copyright (c) Steve Scherf et al.
# Submitted via: ExactAudioCopy v1.0b3
#
DISCID=ca0bd50e
DTITLE=Daniel Balázs - Boogie Cocktail
DYEAR=1900
DGENRE=
TTITLE0=Welcome Boogie
TTITLE1=Girls Like It
TTITLE2=Just Strange
TTITLE3=Pixie
TTITLE4=Bouncing Boogie
TTITLE5=Jump And Jive
TTITLE6=Bass Going Crazy
TTITLE7=Isabelle Madison
TTITLE8=Just For You
TTITLE9=Speeding Boogie
TTITLE10=Suitcase Blues
TTITLE11=Storm
TTITLE12=Running Keys
TTITLE13=Fingerbreaker
EXTD=
EXTT0=
EXTT1=
EXTT2=
EXTT3=
EXTT4=
EXTT5=
EXTT6=
EXTT7=
EXTT8=
EXTT9=
EXTT10=
EXTT11=
EXTT12=
EXTT13=
PLAYORDER=
